<svg height="512" viewBox="0 0 56 56" width="512" xmlns="http://www.w3.org/2000/svg"><g id="008---Light-Sabers" transform="translate(-1)"><path id="Shape" d="m10.49 52.17-2.13 2.12.71.71c.1877666.1893127.44336246.2957983.71.2957983.2666375 0 .5222334-.1064856.71-.2957983l.7-.71c.3877236-.3900375.3877236-1.0199625 0-1.41z"/><path id="Shape" d="m11.9 39.45-5.66 5.65 5.66 5.66 8.48-8.49-7.67-2.56c-.2952412.0382247-.5921622-.0570833-.81-.26z"/><path id="Shape" d="m56.42 3.42c.374373-.37743766.5830735-.88839403.58-1.42-.0033854-.80631139-.4906258-1.5317303-1.2357575-1.83983461s-1.6024026-.13862704-2.1742425.42983461l-30.38 30.41 2.79 2.79z"/><path id="Shape" d="m6.24 47.93-2.12 2.12 2.88 2.83 2.12-2.12z"/><path id="Shape" d="m24.63 35.2c-3.13-3.13-2.93-3-3.27-3.08-.3539138-.1081156-.7386011-.0119438-1 .25l-5.85 5.85 6.37 2.12 3.72-3.73c.3961449-.3817343.4095498-1.0117615.03-1.41z"/><path id="Shape" d="m2 50.76-.71.7c-.18931265.1877666-.29579832.4433625-.29579832.71s.10648567.5222334.29579832.71l2.83 2.83c.39003745.3877236 1.01996255.3877236 1.41 0l.71-.71z"/><path id="Shape" d="m24.76 26.59 2.83-2.83-23.18-23.17c-.78891416-.71741428-2.00193383-.68971574-2.75727939.06296075-.75534556.7526765-.78733779 1.96559052-.07272061 2.75703925z"/><path id="Shape" d="m16.14 31-2.83 2.83c-.3877236.3900375-.3877236 1.0199625 0 1.41l.71.71 4.24-4.25c-.64-.64-.88-1-1.41-1-.2672459.0011094-.5229286.1091444-.71.3z"/><path id="Shape" d="m3.41 45.51c-.49 0-.63.23-1.41 1-.18931265.1877666-.29579832.4433625-.29579832.71s.10648567.5222334.29579832.71l.71.71 2.12-2.13c-.65-.64-.83-1-1.42-1z"/><path id="Rectangle-path" d="m30.598 30.51h4v2.18h-4z" transform="matrix(.707 -.707 .707 .707 -12.797 32.305)"/><path id="Shape" d="m46.81 52.88c-.3877236.3900375-.3877236 1.0199625 0 1.41l.7.71c.1877666.1893127.4433625.2957983.71.2957983s.5222334-.1064856.71-.2957983l.71-.71-2.13-2.12z"/><path id="Rectangle-path" d="m49.395 48.913h4v3h-4z" transform="matrix(.707 -.707 .707 .707 -20.594 51.095)"/><path id="Shape" d="m56 50.76-4.24 4.24.7.71c.1877666.1893127.4433625.2957983.71.2957983s.5222334-.1064856.71-.2957983l2.83-2.83c.1893127-.1877666.2957983-.4433625.2957983-.71s-.1064856-.5222334-.2957983-.71z"/><path id="Shape" d="m51.76 45.1-5.66-5.66c-.2142957.2101658-.5116612.3129588-.81.28l-7.67 2.55 8.48 8.49z"/><path id="Shape" d="m56 47.93c.1893127-.1877666.2957983-.4433625.2957983-.71s-.1064856-.5222334-.2957983-.71l-.71-.7c-.3900375-.3877236-1.0199625-.3877236-1.41 0l-.71.7 2.12 2.13z"/><path id="Shape" d="m40.44 31-.7.7 4.26 4.21.71-.71c.3877236-.3900375.3877236-1.0199625 0-1.41l-2.85-2.79c-.1877666-.1893127-.4433625-.2957983-.71-.2957983s-.5222334.1064856-.71.2957983z"/><path id="Shape" d="m37.61 32.37c-.3900375-.3877236-1.0199625-.3877236-1.41 0-3.13 3.13-3 2.93-3.08 3.27-.1081156.3539138-.0119438.7386011.25 1l3.72 3.73 6.37-2.12z"/><path id="Shape" d="m10.37 20.07-5-2c-.51362482-.2043454-1.09565464.0463752-1.3.56s.04637518 1.0956546.56 1.3l5 2c.5136248.2043454 1.0956546-.0463752 1.3-.56s-.0463752-1.0956546-.56-1.3z"/><path id="Shape" d="m5.37 27.93 5-2c.332257-.1321883.5687535-.4315923.6204036-.7854294s-.0893931-.7083511-.37-.93-.6581466-.2767589-.9904036-.1445706l-5 2c-.51362479.2043454-.7643453.7863752-.55999995 1.3s.78637514.7643453 1.29999995.56z"/><path id="Shape" d="m33.63 11.93c.246631.0983792.5222628.0946309.7661274-.0104184.2438647-.1050494.4359375-.3027739.5338726-.5495816l2-5c.2043453-.51362481-.0463752-1.0956546-.56-1.29999995s-1.0956546.04637516-1.3.55999995l-2 5c-.0983792.246631-.0946309.5222628.0104184.7661274.1050494.2438647.3027739.4359375.5495816.5338726z"/><path id="Shape" d="m23.07 11.37c.1321883.332257.4315923.5687535.7854294.6204036s.7083511-.0893931.93-.37.2767589-.6581466.1445706-.9904036l-2-5c-.1321883-.332257-.4315923-.56875352-.7854294-.62040363-.3538371-.0516501-.7083511.08939311-.93.37-.2216489.2806069-.2767589.65814663-.1445706.99040363z"/><path id="Shape" d="m48 22c.27 0-.09.11 5.37-2.07.5136248-.2043454.7643453-.7863752.56-1.3-.2043454-.5136248-.7863752-.7643453-1.3-.56l-5 2c-.4469654.1766478-.7050524.6462733-.6145632 1.1182841.0904891.4720109.5039582.8128925.9845632.8117159z"/><path id="Shape" d="m47.63 25.93c5.44 2.17 5.1 2.07 5.37 2.07.480605.0011766.8940741-.339705.9845632-.8117159.0904892-.4720108-.1675978-.9416363-.6145632-1.1182841l-5-2c-.5136248-.2043453-1.0956546.0463752-1.3.56-.2043453.5136248.0463752 1.0956546.56 1.3z"/><path id="Shape" d="m29 9c.5522847 0 1-.44771525 1-1v-6c0-.55228475-.4477153-1-1-1s-1 .44771525-1 1v6c0 .55228475.4477153 1 1 1z"/></g></svg>